<svg xmlns="http://www.w3.org/2000/svg" width="200" height="200" fill="none" viewBox="0 0 200 200"><path fill="#0b1215" fill-rule="evenodd" d="m54.4139 48.8941c14.0392-12.4744 30.6875-18.7591 49.8031-18.7591 25.125 0 43.427 16.0684 55.726 36.9445 12.298 20.8748 18.707 46.7195 20.034 66.7215.123 1.683-.247 3.365-1.066 4.84l-.004.009-.005.008c-11.747 20.181-38.412 31.198-74.679 31.199-26.0434.342-50.9524-10.639-68.268-30.095-2.0608-2.291-2.6793-5.536-1.6054-8.424 2.3223-6.251 6.6732-16.678 12.4503-25.57 2.8881-4.445 6.1574-8.5456 9.7396-11.5494 3.5809-3.0027 7.5423-4.9644 11.7913-4.9877h.0051c4.2808 0 7.9808 1.7061 11.1884 4.0116 3.1363 2.2542 5.8646 5.1291 8.2416 7.6335l.1445.153.008.008c1.3618 1.51 2.8062 2.943 4.3264 4.293 6.4777-8.3248 11.8982-17.4226 16.1352-27.0849l.013-.0304.016-.0293c2.055-3.9044 6.811-5.5112 10.813-3.6531 4.002 1.858 5.843 6.528 4.187 10.6175l-.009.0224-.01.0218c-8.664 18.562-15.358 27.947-20.336 32.697-2.497 2.383-4.5822 3.62-6.2885 4.251-1.7194.637-2.9972.637-3.7883.637-3.629 0-6.7239-1.4-9.4775-3.391-2.6993-1.952-5.1292-4.516-7.4425-6.957l-.0981-.103c-1.0621-1.127-2.6717-2.832-4.221-4.254-.7761-.713-1.5156-1.334-2.1481-1.771-.3164-.219-.587-.379-.8074-.48-.1091-.051-.1959-.082-.2617-.101-.0157-.004-.0296-.007-.0417-.01-.26.069-.6273.248-1.105.604-.531.396-1.1372.963-1.8065 1.699-1.338 1.471-2.8638 3.543-4.4724 6.062-3.1269 4.895-6.5129 11.394-9.3847 18.232 13.9466 13.766 32.8774 21.312 52.4874 20.903h.009.01c28.723 0 49.875-7.791 59.048-20.937-1.632-18.127-7.468-39.5309-17.366-56.4119-9.969-17.0028-23.922-29.2125-41.682-29.2125-30.3346 0-53.3493 21.1611-68.2916 63.3614l-.0093.026-.011.026c-1.7064 4.03-6.2543 6.036-10.3808 4.579-4.1266-1.458-6.4064-5.875-5.2039-10.082l.0078-.028.0095-.027c8.6789-24.561 20.0552-43.1537 34.0762-55.6119z" clip-rule="evenodd"/></svg>
